<svg width="43" height="37" viewBox="0 0 43 37" fill="none" xmlns="http://www.w3.org/2000/svg">
<rect x="0.5" y="0.5" width="42" height="36" stroke="#8F059B"/>
<path d="M21.5 18.5001C19.5292 18.5001 17.842 17.8963 16.4386 16.6886C15.0351 15.481 14.3334 14.0292 14.3334 12.3334C14.3334 10.6376 15.0351 9.18585 16.4386 7.97821C17.842 6.77057 19.5292 6.16675 21.5 6.16675C23.4709 6.16675 25.158 6.77057 26.5615 7.97821C27.965 9.18585 28.6667 10.6376 28.6667 12.3334C28.6667 14.0292 27.965 15.481 26.5615 16.6886C25.158 17.8963 23.4709 18.5001 21.5 18.5001ZM7.16669 30.8334V26.5167C7.16669 25.6431 7.42797 24.8402 7.95054 24.1079C8.47311 23.3756 9.16738 22.8167 10.0334 22.4313C11.8847 21.6348 13.766 21.0374 15.6771 20.6391C17.5882 20.2409 19.5292 20.0417 21.5 20.0417C23.4709 20.0417 25.4118 20.2409 27.3229 20.6391C29.234 21.0374 31.1153 21.6348 32.9667 22.4313C33.8327 22.8167 34.5269 23.3756 35.0495 24.1079C35.5721 24.8402 35.8334 25.6431 35.8334 26.5167V30.8334H7.16669ZM10.75 27.7501H32.25V26.5167C32.25 26.2341 32.1679 25.9772 32.0037 25.7459C31.8394 25.5147 31.6229 25.3348 31.3542 25.2063C29.7417 24.5126 28.1143 23.9923 26.4719 23.6454C24.8295 23.2985 23.1722 23.1251 21.5 23.1251C19.8278 23.1251 18.1705 23.2985 16.5281 23.6454C14.8858 23.9923 13.2584 24.5126 11.6459 25.2063C11.3771 25.3348 11.1606 25.5147 10.9964 25.7459C10.8321 25.9772 10.75 26.2341 10.75 26.5167V27.7501ZM21.5 15.4167C22.4854 15.4167 23.329 15.1148 24.0308 14.511C24.7325 13.9072 25.0834 13.1813 25.0834 12.3334C25.0834 11.4855 24.7325 10.7596 24.0308 10.1558C23.329 9.55199 22.4854 9.25008 21.5 9.25008C20.5146 9.25008 19.671 9.55199 18.9693 10.1558C18.2676 10.7596 17.9167 11.4855 17.9167 12.3334C17.9167 13.1813 18.2676 13.9072 18.9693 14.511C19.671 15.1148 20.5146 15.4167 21.5 15.4167Z" fill="#8F059B"/>
</svg>
