<svg width="36" height="32" viewBox="0 0 36 32" fill="none" xmlns="http://www.w3.org/2000/svg">
<path d="M5.75 29.5H30.25C32.183 29.5 33.75 28.1569 33.75 26.5V5.5C33.75 3.84315 32.183 2.5 30.25 2.5H5.75C3.817 2.5 2.25 3.84315 2.25 5.5V26.5C2.25 28.1569 3.817 29.5 5.75 29.5ZM5.75 29.5L25 13L33.75 20.5M14.5 10.75C14.5 11.9926 13.3247 13 11.875 13C10.4253 13 9.25 11.9926 9.25 10.75C9.25 9.50736 10.4253 8.5 11.875 8.5C13.3247 8.5 14.5 9.50736 14.5 10.75Z" stroke="#8F059B" stroke-width="3.5" stroke-linecap="round" stroke-linejoin="round"/>
</svg>
