<svg width="34" height="30" viewBox="0 0 34 30" fill="none" xmlns="http://www.w3.org/2000/svg">
<path d="M22.8333 13.5C23.5278 13.5 24.118 13.2813 24.6041 12.8438C25.0903 12.4062 25.3333 11.875 25.3333 11.25C25.3333 10.625 25.0903 10.0938 24.6041 9.65625C24.118 9.21875 23.5278 9 22.8333 9C22.1389 9 21.5486 9.21875 21.0625 9.65625C20.5764 10.0938 20.3333 10.625 20.3333 11.25C20.3333 11.875 20.5764 12.4062 21.0625 12.8438C21.5486 13.2813 22.1389 13.5 22.8333 13.5ZM11.1666 13.5C11.8611 13.5 12.4514 13.2813 12.9375 12.8438C13.4236 12.4062 13.6666 11.875 13.6666 11.25C13.6666 10.625 13.4236 10.0938 12.9375 9.65625C12.4514 9.21875 11.8611 9 11.1666 9C10.4722 9 9.88192 9.21875 9.39581 9.65625C8.9097 10.0938 8.66665 10.625 8.66665 11.25C8.66665 11.875 8.9097 12.4062 9.39581 12.8438C9.88192 13.2813 10.4722 13.5 11.1666 13.5ZM17 23.25C18.8889 23.25 20.6041 22.7688 22.1458 21.8063C23.6875 20.8438 24.8055 19.575 25.5 18H8.49998C9.19442 19.575 10.3125 20.8438 11.8541 21.8063C13.3958 22.7688 15.1111 23.25 17 23.25ZM17 30C14.6944 30 12.5278 29.6062 10.5 28.8187C8.4722 28.0312 6.70831 26.9625 5.20831 25.6125C3.70831 24.2625 2.52081 22.675 1.64581 20.85C0.770813 19.025 0.333313 17.075 0.333313 15C0.333313 12.925 0.770813 10.975 1.64581 9.15C2.52081 7.325 3.70831 5.7375 5.20831 4.3875C6.70831 3.0375 8.4722 1.96875 10.5 1.18125C12.5278 0.39375 14.6944 0 17 0C19.3055 0 21.4722 0.39375 23.5 1.18125C25.5278 1.96875 27.2916 3.0375 28.7916 4.3875C30.2916 5.7375 31.4791 7.325 32.3541 9.15C33.2291 10.975 33.6666 12.925 33.6666 15C33.6666 17.075 33.2291 19.025 32.3541 20.85C31.4791 22.675 30.2916 24.2625 28.7916 25.6125C27.2916 26.9625 25.5278 28.0312 23.5 28.8187C21.4722 29.6062 19.3055 30 17 30ZM17 27C20.7222 27 23.875 25.8375 26.4583 23.5125C29.0416 21.1875 30.3333 18.35 30.3333 15C30.3333 11.65 29.0416 8.8125 26.4583 6.4875C23.875 4.1625 20.7222 3 17 3C13.2778 3 10.125 4.1625 7.54165 6.4875C4.95831 8.8125 3.66665 11.65 3.66665 15C3.66665 18.35 4.95831 21.1875 7.54165 23.5125C10.125 25.8375 13.2778 27 17 27Z" fill="#8F059B"/>
</svg>
