<svg width="43" height="37" viewBox="0 0 43 37" fill="none" xmlns="http://www.w3.org/2000/svg">
<path d="M21.5 23.1251C22.9931 23.1251 24.2622 22.6754 25.3073 21.7761C26.3524 20.8768 26.875 19.7848 26.875 18.5001C26.875 17.2154 26.3524 16.1233 25.3073 15.224C24.2622 14.3247 22.9931 13.8751 21.5 13.8751C20.007 13.8751 18.7379 14.3247 17.6927 15.224C16.6476 16.1233 16.125 17.2154 16.125 18.5001C16.125 19.7848 16.6476 20.8768 17.6927 21.7761C18.7379 22.6754 20.007 23.1251 21.5 23.1251ZM21.5 26.2084C19.0215 26.2084 16.9089 25.4569 15.162 23.9537C13.4151 22.4506 12.5417 20.6327 12.5417 18.5001C12.5417 16.3674 13.4151 14.5496 15.162 13.0464C16.9089 11.5433 19.0215 10.7917 21.5 10.7917C23.9785 10.7917 26.0912 11.5433 27.838 13.0464C29.5849 14.5496 30.4584 16.3674 30.4584 18.5001C30.4584 20.6327 29.5849 22.4506 27.838 23.9537C26.0912 25.4569 23.9785 26.2084 21.5 26.2084ZM8.95835 20.0417H1.79169V16.9584H8.95835V20.0417ZM41.2084 20.0417H34.0417V16.9584H41.2084V20.0417ZM19.7084 7.70841V1.54175H23.2917V7.70841H19.7084ZM19.7084 35.4584V29.2917H23.2917V35.4584H19.7084ZM11.4667 11.948L6.94273 8.20946L9.49585 5.9355L13.7959 9.78966L11.4667 11.948ZM33.5042 31.0647L29.1594 27.172L31.5334 25.0522L36.0573 28.7907L33.5042 31.0647ZM29.1146 9.86675L33.4594 5.97404L36.1021 8.17091L31.6229 11.8709L29.1146 9.86675ZM6.89794 28.8292L11.4219 25.0907L13.8854 27.1334L9.54065 31.0261L6.89794 28.8292Z" fill="#8F059B"/>
</svg>
