<svg width="28" height="21" viewBox="0 0 28 21" fill="none" xmlns="http://www.w3.org/2000/svg">
<path d="M5.83333 18.375H22.1667C23.4553 18.375 24.5 17.5915 24.5 16.625V4.375C24.5 3.4085 23.4553 2.625 22.1667 2.625H5.83333C4.54467 2.625 3.5 3.4085 3.5 4.375V16.625C3.5 17.5915 4.54467 18.375 5.83333 18.375ZM5.83333 18.375L18.6667 8.75L24.5 13.125M11.6667 7.4375C11.6667 8.16237 10.8832 8.75 9.91667 8.75C8.95017 8.75 8.16667 8.16237 8.16667 7.4375C8.16667 6.71263 8.95017 6.125 9.91667 6.125C10.8832 6.125 11.6667 6.71263 11.6667 7.4375Z" stroke="#4A4949" stroke-width="3" stroke-linecap="round" stroke-linejoin="round"/>
</svg>
