<svg width="29" height="23" viewBox="0 0 29 23" fill="none" xmlns="http://www.w3.org/2000/svg">
<path d="M14.5 14.3749C15.507 14.3749 16.3629 14.0954 17.0677 13.5364C17.7726 12.9773 18.125 12.2985 18.125 11.4999C18.125 10.7013 17.7726 10.0225 17.0677 9.46346C16.3629 8.90443 15.507 8.62492 14.5 8.62492C13.4931 8.62492 12.6372 8.90443 11.9323 9.46346C11.2275 10.0225 10.875 10.7013 10.875 11.4999C10.875 12.2985 11.2275 12.9773 11.9323 13.5364C12.6372 14.0954 13.4931 14.3749 14.5 14.3749ZM14.5 16.2916C12.8285 16.2916 11.4037 15.8244 10.2256 14.89C9.04744 13.9556 8.45837 12.8256 8.45837 11.4999C8.45837 10.1742 9.04744 9.04419 10.2256 8.10981C11.4037 7.17544 12.8285 6.70825 14.5 6.70825C16.1716 6.70825 17.5964 7.17544 18.7745 8.10981C19.9526 9.04419 20.5417 10.1742 20.5417 11.4999C20.5417 12.8256 19.9526 13.9556 18.7745 14.89C17.5964 15.8244 16.1716 16.2916 14.5 16.2916ZM6.04171 12.4583H1.20837V10.5416H6.04171V12.4583ZM27.7917 12.4583H22.9584V10.5416H27.7917V12.4583ZM13.2917 4.79158V0.958252H15.7084V4.79158H13.2917ZM13.2917 22.0416V18.2083H15.7084V22.0416H13.2917ZM7.73337 7.427L4.68233 5.10304L6.40421 3.6895L9.30421 6.08533L7.73337 7.427ZM22.5959 19.3103L19.6657 16.8905L21.2667 15.5728L24.3177 17.8968L22.5959 19.3103ZM19.6355 6.13325L22.5657 3.71346L24.348 5.07909L21.3271 7.37909L19.6355 6.13325ZM4.65212 17.9208L7.70317 15.5968L9.36462 16.8666L6.43442 19.2864L4.65212 17.9208Z" fill="#3A3A3A"/>
</svg>
