<svg width="26" height="19" viewBox="0 0 26 19" fill="none" xmlns="http://www.w3.org/2000/svg">
<path d="M5.41667 16.625H20.5833C21.78 16.625 22.75 15.9161 22.75 15.0417V3.95833C22.75 3.08388 21.78 2.375 20.5833 2.375H5.41667C4.22005 2.375 3.25 3.08388 3.25 3.95833V15.0417C3.25 15.9161 4.22005 16.625 5.41667 16.625ZM5.41667 16.625L17.3333 7.91667L22.75 11.875M10.8333 6.72917C10.8333 7.38501 10.1058 7.91667 9.20833 7.91667C8.31087 7.91667 7.58333 7.38501 7.58333 6.72917C7.58333 6.07333 8.31087 5.54167 9.20833 5.54167C10.1058 5.54167 10.8333 6.07333 10.8333 6.72917Z" stroke="white" stroke-width="2" stroke-linecap="round" stroke-linejoin="round"/>
</svg>
