<svg width="28" height="24" viewBox="0 0 28 24" fill="none" xmlns="http://www.w3.org/2000/svg">
<path d="M18.0834 11C18.5695 11 18.9827 10.8542 19.323 10.5625C19.6632 10.2708 19.8334 9.91667 19.8334 9.5C19.8334 9.08333 19.6632 8.72917 19.323 8.4375C18.9827 8.14583 18.5695 8 18.0834 8C17.5973 8 17.1841 8.14583 16.8438 8.4375C16.5035 8.72917 16.3334 9.08333 16.3334 9.5C16.3334 9.91667 16.5035 10.2708 16.8438 10.5625C17.1841 10.8542 17.5973 11 18.0834 11ZM9.91671 11C10.4028 11 10.816 10.8542 11.1563 10.5625C11.4966 10.2708 11.6667 9.91667 11.6667 9.5C11.6667 9.08333 11.4966 8.72917 11.1563 8.4375C10.816 8.14583 10.4028 8 9.91671 8C9.4306 8 9.0174 8.14583 8.67712 8.4375C8.33685 8.72917 8.16671 9.08333 8.16671 9.5C8.16671 9.91667 8.33685 10.2708 8.67712 10.5625C9.0174 10.8542 9.4306 11 9.91671 11ZM14 17.5C15.3223 17.5 16.523 17.1792 17.6021 16.5375C18.6813 15.8958 19.4639 15.05 19.95 14H8.05004C8.53615 15.05 9.31879 15.8958 10.398 16.5375C11.4771 17.1792 12.6778 17.5 14 17.5ZM14 22C12.3862 22 10.8695 21.7375 9.45004 21.2125C8.0306 20.6875 6.79587 19.975 5.74587 19.075C4.69587 18.175 3.86462 17.1167 3.25212 15.9C2.63962 14.6833 2.33337 13.3833 2.33337 12C2.33337 10.6167 2.63962 9.31667 3.25212 8.1C3.86462 6.88333 4.69587 5.825 5.74587 4.925C6.79587 4.025 8.0306 3.3125 9.45004 2.7875C10.8695 2.2625 12.3862 2 14 2C15.6139 2 17.1306 2.2625 18.55 2.7875C19.9695 3.3125 21.2042 4.025 22.2542 4.925C23.3042 5.825 24.1355 6.88333 24.748 8.1C25.3605 9.31667 25.6667 10.6167 25.6667 12C25.6667 13.3833 25.3605 14.6833 24.748 15.9C24.1355 17.1167 23.3042 18.175 22.2542 19.075C21.2042 19.975 19.9695 20.6875 18.55 21.2125C17.1306 21.7375 15.6139 22 14 22ZM14 20C16.6056 20 18.8125 19.225 20.6209 17.675C22.4292 16.125 23.3334 14.2333 23.3334 12C23.3334 9.76667 22.4292 7.875 20.6209 6.325C18.8125 4.775 16.6056 4 14 4C11.3945 4 9.18754 4.775 7.37921 6.325C5.57087 7.875 4.66671 9.76667 4.66671 12C4.66671 14.2333 5.57087 16.125 7.37921 17.675C9.18754 19.225 11.3945 20 14 20Z" fill="#525252"/>
</svg>
