<svg width="28" height="24" viewBox="0 0 28 24" fill="none" xmlns="http://www.w3.org/2000/svg">
<path d="M17.8845 11C18.3653 11 18.774 10.8542 19.1105 10.5625C19.447 10.2708 19.6153 9.91667 19.6153 9.5C19.6153 9.08333 19.447 8.72917 19.1105 8.4375C18.774 8.14583 18.3653 8 17.8845 8C17.4038 8 16.9951 8.14583 16.6586 8.4375C16.322 8.72917 16.1538 9.08333 16.1538 9.5C16.1538 9.91667 16.322 10.2708 16.6586 10.5625C16.9951 10.8542 17.4038 11 17.8845 11ZM9.80762 11C10.2884 11 10.697 10.8542 11.0336 10.5625C11.3701 10.2708 11.5384 9.91667 11.5384 9.5C11.5384 9.08333 11.3701 8.72917 11.0336 8.4375C10.697 8.14583 10.2884 8 9.80762 8C9.32685 8 8.91819 8.14583 8.58166 8.4375C8.24512 8.72917 8.07685 9.08333 8.07685 9.5C8.07685 9.91667 8.24512 10.2708 8.58166 10.5625C8.91819 10.8542 9.32685 11 9.80762 11ZM13.8461 17.5C15.1538 17.5 16.3413 17.1792 17.4086 16.5375C18.4759 15.8958 19.2499 15.05 19.7307 14H7.96146C8.44223 15.05 9.21627 15.8958 10.2836 16.5375C11.3509 17.1792 12.5384 17.5 13.8461 17.5ZM13.8461 22C12.2499 22 10.7499 21.7375 9.34608 21.2125C7.94223 20.6875 6.72108 19.975 5.68262 19.075C4.64416 18.175 3.82204 17.1167 3.21627 15.9C2.6105 14.6833 2.30762 13.3833 2.30762 12C2.30762 10.6167 2.6105 9.31667 3.21627 8.1C3.82204 6.88333 4.64416 5.825 5.68262 4.925C6.72108 4.025 7.94223 3.3125 9.34608 2.7875C10.7499 2.2625 12.2499 2 13.8461 2C15.4422 2 16.9422 2.2625 18.3461 2.7875C19.7499 3.3125 20.9711 4.025 22.0095 4.925C23.048 5.825 23.8701 6.88333 24.4759 8.1C25.0817 9.31667 25.3845 10.6167 25.3845 12C25.3845 13.3833 25.0817 14.6833 24.4759 15.9C23.8701 17.1167 23.048 18.175 22.0095 19.075C20.9711 19.975 19.7499 20.6875 18.3461 21.2125C16.9422 21.7375 15.4422 22 13.8461 22ZM13.8461 20C16.423 20 18.6057 19.225 20.3942 17.675C22.1826 16.125 23.0769 14.2333 23.0769 12C23.0769 9.76667 22.1826 7.875 20.3942 6.325C18.6057 4.775 16.423 4 13.8461 4C11.2692 4 9.08646 4.775 7.298 6.325C5.50954 7.875 4.61531 9.76667 4.61531 12C4.61531 14.2333 5.50954 16.125 7.298 17.675C9.08646 19.225 11.2692 20 13.8461 20Z" fill="#FFFCFC"/>
</svg>
