<svg width="27" height="22" viewBox="0 0 27 22" fill="none" xmlns="http://www.w3.org/2000/svg">
<rect width="27" height="22" rx="4" fill="#2E2E2E" fill-opacity="0.2"/>
<path d="M13.5 11.0001C12.2625 11.0001 11.2031 10.6411 10.3219 9.923C9.44063 9.20494 9 8.34175 9 7.33341C9 6.32508 9.44063 5.46189 10.3219 4.74383C11.2031 4.02578 12.2625 3.66675 13.5 3.66675C14.7375 3.66675 15.7969 4.02578 16.6781 4.74383C17.5594 5.46189 18 6.32508 18 7.33341C18 8.34175 17.5594 9.20494 16.6781 9.923C15.7969 10.6411 14.7375 11.0001 13.5 11.0001ZM4.5 18.3334V15.7667C4.5 15.2473 4.66406 14.7699 4.99219 14.3345C5.32031 13.899 5.75625 13.5667 6.3 13.3376C7.4625 12.864 8.64375 12.5088 9.84375 12.272C11.0438 12.0352 12.2625 11.9167 13.5 11.9167C14.7375 11.9167 15.9563 12.0352 17.1562 12.272C18.3562 12.5088 19.5375 12.864 20.7 13.3376C21.2438 13.5667 21.6797 13.899 22.0078 14.3345C22.3359 14.7699 22.5 15.2473 22.5 15.7667V18.3334H4.5ZM6.75 16.5001H20.25V15.7667C20.25 15.5987 20.1984 15.4459 20.0953 15.3084C19.9922 15.1709 19.8562 15.064 19.6875 14.9876C18.675 14.5751 17.6531 14.2657 16.6219 14.0595C15.5906 13.8532 14.55 13.7501 13.5 13.7501C12.45 13.7501 11.4094 13.8532 10.3781 14.0595C9.34687 14.2657 8.325 14.5751 7.3125 14.9876C7.14375 15.064 7.00781 15.1709 6.90469 15.3084C6.80156 15.4459 6.75 15.5987 6.75 15.7667V16.5001ZM13.5 9.16675C14.1187 9.16675 14.6484 8.98723 15.0891 8.62821C15.5297 8.26918 15.75 7.83758 15.75 7.33341C15.75 6.82925 15.5297 6.39765 15.0891 6.03862C14.6484 5.6796 14.1187 5.50008 13.5 5.50008C12.8813 5.50008 12.3516 5.6796 11.9109 6.03862C11.4703 6.39765 11.25 6.82925 11.25 7.33341C11.25 7.83758 11.4703 8.26918 11.9109 8.62821C12.3516 8.98723 12.8813 9.16675 13.5 9.16675Z" fill="#3A3A3A"/>
</svg>
