<svg width="29" height="23" viewBox="0 0 29 23" fill="none" xmlns="http://www.w3.org/2000/svg">
<path d="M14.4999 14.3749C15.5069 14.3749 16.3628 14.0954 17.0676 13.5364C17.7725 12.9773 18.1249 12.2985 18.1249 11.4999C18.1249 10.7013 17.7725 10.0225 17.0676 9.46346C16.3628 8.90443 15.5069 8.62492 14.4999 8.62492C13.493 8.62492 12.6371 8.90443 11.9322 9.46346C11.2273 10.0225 10.8749 10.7013 10.8749 11.4999C10.8749 12.2985 11.2273 12.9773 11.9322 13.5364C12.6371 14.0954 13.493 14.3749 14.4999 14.3749ZM14.4999 16.2916C12.8284 16.2916 11.4036 15.8244 10.2254 14.89C9.04731 13.9556 8.45825 12.8256 8.45825 11.4999C8.45825 10.1742 9.04731 9.04419 10.2254 8.10981C11.4036 7.17544 12.8284 6.70825 14.4999 6.70825C16.1714 6.70825 17.5963 7.17544 18.7744 8.10981C19.9525 9.04419 20.5416 10.1742 20.5416 11.4999C20.5416 12.8256 19.9525 13.9556 18.7744 14.89C17.5963 15.8244 16.1714 16.2916 14.4999 16.2916ZM6.04158 12.4583H1.20825V10.5416H6.04158V12.4583ZM27.7916 12.4583H22.9583V10.5416H27.7916V12.4583ZM13.2916 4.79158V0.958252H15.7083V4.79158H13.2916ZM13.2916 22.0416V18.2083H15.7083V22.0416H13.2916ZM7.73325 7.427L4.68221 5.10304L6.40409 3.6895L9.30408 6.08533L7.73325 7.427ZM22.5958 19.3103L19.6655 16.8905L21.2666 15.5728L24.3176 17.8968L22.5958 19.3103ZM19.6353 6.13325L22.5655 3.71346L24.3478 5.07909L21.327 7.37909L19.6353 6.13325ZM4.652 17.9208L7.70304 15.5968L9.3645 16.8666L6.43429 19.2864L4.652 17.9208Z" fill="white"/>
</svg>
